<svg width="93" height="49" viewBox="0 0 93 49" fill="none" xmlns="http://www.w3.org/2000/svg">
<g filter="url(#filter0_d_324_940)">
<g clip-path="url(#clip0_324_940)">
<rect x="7" y="3.00009" width="79" height="35" fill="white"/>
</g>
</g>
<path d="M26.3333 10.8334V13.5834M33.6667 10.8334V13.5834M22.2083 17.3326H37.7917M38.25 16.7918V24.5834C38.25 27.3334 36.875 29.1668 33.6667 29.1668H26.3333C23.125 29.1668 21.75 27.3334 21.75 24.5834V16.7918C21.75 14.0418 23.125 12.2084 26.3333 12.2084H33.6667C36.875 12.2084 38.25 14.0418 38.25 16.7918Z" stroke="#030303" stroke-width="1.5" stroke-miterlimit="10" stroke-linecap="round" stroke-linejoin="round"/>
<path d="M33.387 21.5584H33.3953M33.387 24.3084H33.3953M29.9954 21.5584H30.0045M29.9954 24.3084H30.0045M26.6028 21.5584H26.612M26.6028 24.3084H26.612" stroke="#030303" stroke-width="2" stroke-linecap="round" stroke-linejoin="round"/>
<path d="M65.992 19.8414V18.7354H63.528V16.2854H62.478V18.7354H60V19.8414H62.478V22.2914H63.528V19.8414H65.992Z" fill="#030303"/>
<path d="M77 26.2854V25.2854H72V26.2854H77Z" fill="#030303"/>
<path d="M65.2814 27.3832L66.1475 27.8832L72.7195 16.5001L71.8535 16.0001L65.2814 27.3832Z" fill="#030303"/>
<line x1="48.5" y1="6.00009" x2="48.5" y2="35.0001" stroke="#030303"/>
<defs>
<filter id="filter0_d_324_940" x="0" y="9.15527e-05" width="93" height="49" filterUnits="userSpaceOnUse" color-interpolation-filters="sRGB">
<feFlood flood-opacity="0" result="BackgroundImageFix"/>
<feColorMatrix in="SourceAlpha" type="matrix" values="0 0 0 0 0 0 0 0 0 0 0 0 0 0 0 0 0 0 127 0" result="hardAlpha"/>
<feOffset dy="4"/>
<feGaussianBlur stdDeviation="3.5"/>
<feComposite in2="hardAlpha" operator="out"/>
<feColorMatrix type="matrix" values="0 0 0 0 0 0 0 0 0 0 0 0 0 0 0 0 0 0 0.25 0"/>
<feBlend mode="normal" in2="BackgroundImageFix" result="effect1_dropShadow_324_940"/>
<feBlend mode="normal" in="SourceGraphic" in2="effect1_dropShadow_324_940" result="shape"/>
</filter>
<clipPath id="clip0_324_940">
<rect x="7" y="3.00009" width="79" height="35" rx="8" fill="white"/>
</clipPath>
</defs>
</svg>
