<svg width="279" height="99" viewBox="0 0 279 99" fill="none" xmlns="http://www.w3.org/2000/svg">
<path d="M107.461 72.2171H89.4696L84.7879 82.4065H77.956L98.7512 37.8177L118.812 82.4065H111.871L107.461 72.2171ZM104.875 66.2665L98.6423 52.0013L92.1098 66.2665H104.875Z" fill="black"/>
<path d="M138.327 64.5275L151.338 82.4065H143.581L131.577 65.234H130.434V82.4065H124.092V40.4533H131.523C137.075 40.4533 141.086 41.4949 143.553 43.5781C146.275 45.8967 147.636 48.9581 147.636 52.7621C147.636 55.7329 146.783 58.2871 145.078 60.4246C143.372 62.5621 141.122 63.9297 138.327 64.5275ZM130.434 59.7181H132.448C138.454 59.7181 141.458 57.4266 141.458 52.8436C141.458 48.5505 138.536 46.4039 132.693 46.4039H130.434V59.7181Z" fill="black"/>
<path d="M164.022 57.1911L180.381 40.4533H188.846L169.847 59.4464L188.955 82.4065H180.462L165.329 63.7395L164.022 65.0438V82.4065H157.68V40.4533H164.022V57.1911Z" fill="black"/>
<path d="M218.188 40.4533V82.4065H211.846V40.4533H218.188Z" fill="black"/>
<path d="M239.881 46.4039V82.4065H233.539V46.4039H223.876V40.4533H249.517V46.4039H239.881Z" fill="black"/>
<path d="M65.4399 68.4946V82.963H73.8016V54.5208L65.4399 68.4946Z" fill="black"/>
<path d="M29.2216 69.2351L28.9374 82.9357L37.2988 82.9902L37.4291 76.7091L29.2216 69.2351Z" fill="black"/>
<path d="M37.5748 69.6891V69.0782L37.5874 69.0783L37.5748 69.6891Z" fill="black"/>
<path d="M73.0074 15.8336L73.2318 15.9704V34.6874L48.9527 74.3806L29.3665 53.4366V38.7582L47.273 57.9061L73.0074 15.8336Z" fill="black"/>
<path fill-rule="evenodd" clip-rule="evenodd" d="M273.54 5.45988H5.45988V92.818H273.54V5.45988ZM0 0V98.2779H279V0H0Z" fill="black"/>
</svg>
