<svg width="15" height="15" viewBox="0 0 15 15" fill="none" xmlns="http://www.w3.org/2000/svg">
<g clip-path="url(#clip0_324_886)">
<path d="M13.75 13.75L12.5 12.5M7.1875 13.125C7.96722 13.125 8.73931 12.9714 9.45968 12.673C10.1801 12.3746 10.8346 11.9373 11.3859 11.3859C11.9373 10.8346 12.3746 10.1801 12.673 9.45968C12.9714 8.73931 13.125 7.96722 13.125 7.1875C13.125 6.40778 12.9714 5.63569 12.673 4.91532C12.3746 4.19495 11.9373 3.5404 11.3859 2.98905C10.8346 2.43771 10.1801 2.00035 9.45968 1.70197C8.73931 1.40358 7.96722 1.25 7.1875 1.25C5.61278 1.25 4.10255 1.87556 2.98905 2.98905C1.87556 4.10255 1.25 5.61278 1.25 7.1875C1.25 8.76222 1.87556 10.2724 2.98905 11.3859C4.10255 12.4994 5.61278 13.125 7.1875 13.125V13.125Z" stroke="#030303" stroke-width="1.5" stroke-linecap="round" stroke-linejoin="round"/>
</g>
<defs>
<clipPath id="clip0_324_886">
<rect width="15" height="15" fill="white"/>
</clipPath>
</defs>
</svg>
