<svg width="34" height="34" viewBox="0 0 34 34" fill="none" xmlns="http://www.w3.org/2000/svg">
<path fill-rule="evenodd" clip-rule="evenodd" d="M17 31C24.732 31 31 24.732 31 17C31 9.26801 24.732 3 17 3C9.26801 3 3 9.26801 3 17C3 24.732 9.26801 31 17 31ZM17 34C26.3888 34 34 26.3888 34 17C34 7.61116 26.3888 0 17 0C7.61116 0 0 7.61116 0 17C0 26.3888 7.61116 34 17 34Z" fill="#030303"/>
<path d="M19.0001 25H16.0001V14.24H19.0001V25ZM16.2401 12.88C15.9067 12.5333 15.7401 12.1133 15.7401 11.62C15.7401 11.1267 15.9067 10.7133 16.2401 10.38C16.5867 10.0333 17.0067 9.85999 17.5001 9.85999C17.9934 9.85999 18.4067 10.0333 18.7401 10.38C19.0867 10.7133 19.2601 11.1267 19.2601 11.62C19.2601 12.1133 19.0867 12.5333 18.7401 12.88C18.4067 13.2133 17.9934 13.38 17.5001 13.38C17.0067 13.38 16.5867 13.2133 16.2401 12.88Z" fill="#030303"/>
</svg>
